# xmcd CD database file
#
# Track frame offsets:
#	150
#	21770
#	59322
#	82103
#	97826
#	123728
#	147978
#	175386
#	194586
#	216869
#	242512
#	281935
#	310159
#
# Disc length: 4496 seconds
#
# Revision: 1
# Processed by: cddbd v1.4PL0 Copyright (c) Steve Scherf et al.
# Submitted via: CDex 1.50
#
DISCID=c3118e0d
DTITLE=Incognito - Yesterday's Dream
DYEAR=2003
DGENRE=Jazz
TTITLE0=One Step To A Miracle
TTITLE1=Black Rain
TTITLE2=Shine On
TTITLE3=After The Fall
TTITLE4=Parisienne Girl
TTITLE5=Mr. Z
TTITLE6=Jacob's Ladder
TTITLE7=Sunchild
TTITLE8=Barumba
TTITLE9=Colibri
TTITLE10=She Wears Black
TTITLE11=Millenium
TTITLE12=Yesterday's Dream
EXTD=YEAR: 2003
EXTT0=
EXTT1=
EXTT2=
EXTT3=
EXTT4=
EXTT5=
EXTT6=
EXTT7=
EXTT8=
EXTT9=
EXTT10=
EXTT11=
EXTT12=
PLAYORDER=
